<svg width="27" height="27" viewBox="0 0 27 27" fill="none" xmlns="http://www.w3.org/2000/svg">
<path fill-rule="evenodd" clip-rule="evenodd" d="M12.5817 0.0171279C12.4836 0.0285549 12.1851 0.0624278 11.9185 0.0924237C9.55437 0.358408 7.02491 1.44571 5.18481 2.98697C3.72047 4.21349 2.61975 5.61422 1.7895 7.30776C1.15122 8.60957 0.788621 9.77577 0.560285 11.2613C0.433925 12.0832 0.433925 14.0104 0.560285 14.8322C0.788621 16.3175 1.15112 17.4837 1.78935 18.7858C2.47043 20.1753 3.22962 21.2324 4.32564 22.3173C5.40172 23.3825 6.38745 24.0824 7.76099 24.7567C9.67011 25.6939 11.3322 26.076 13.5 26.076C15.6198 26.076 17.2978 25.6992 19.1399 24.8097C20.5138 24.1463 21.4914 23.4625 22.573 22.4085C23.7549 21.2568 24.5032 20.229 25.2106 18.7858C25.8489 17.4837 26.2114 16.3175 26.4397 14.8322C26.566 14.0104 26.566 12.0832 26.4397 11.2613C26.0863 8.96188 25.248 6.94812 23.8987 5.15693C23.4344 4.54069 22.458 3.52333 21.8152 2.98606C20.0472 1.50856 17.7603 0.488084 15.4279 0.135989C14.7831 0.0386556 13.0268 -0.0347017 12.5817 0.0171279ZM14.7254 4.80504C18.0718 5.2506 20.6463 7.48825 21.5325 10.7214C21.8032 11.7091 21.8824 12.4221 21.8527 13.6041C21.816 15.0675 21.6411 15.8961 21.1631 16.8728C20.6118 17.9989 19.5882 18.6361 18.6076 18.4633C17.8241 18.3253 17.1786 17.7231 16.9712 16.9365C16.9397 16.8174 16.8959 16.7197 16.8738 16.7197C16.8517 16.7197 16.778 16.7797 16.7099 16.8527C16.3316 17.26 15.3994 17.764 14.6733 17.9543C14.0466 18.1185 12.8003 18.1185 12.1736 17.9543C10.714 17.5719 9.56931 16.581 8.98796 15.1964C8.63643 14.3592 8.50833 13.139 8.67296 12.1951C9.01199 10.2511 10.3318 8.80174 12.1992 8.32278C13.0636 8.10102 14.099 8.1351 14.9794 8.4142C15.4803 8.57305 16.0826 8.90244 16.5157 9.25459L16.9042 9.57038L17.0181 9.41639C17.1367 9.25592 17.3978 9.11874 17.5844 9.11874C17.7542 9.11874 18.0392 9.27382 18.1333 9.41741C18.2104 9.5351 18.2213 9.88489 18.2443 13.0189C18.2696 16.4703 18.2704 16.4914 18.3816 16.6992C18.7168 17.3256 19.4126 17.1568 19.8739 16.3371C20.3215 15.5415 20.5598 13.9773 20.4402 12.6205C20.2753 10.7516 19.635 9.29734 18.4483 8.09724C17.0615 6.69479 15.1289 6.0134 12.9739 6.16715C10.0918 6.37274 7.81149 8.11378 6.90319 10.8021C6.48989 12.0256 6.42066 13.6127 6.72409 14.9087C7.35002 17.5822 9.42663 19.4593 12.2247 19.8811C12.4351 19.9129 12.9057 19.9388 13.2704 19.9389C14.2058 19.9392 14.9896 19.7702 16.0117 19.3477C16.3651 19.2017 16.4953 19.1707 16.6403 19.1978C17.154 19.2942 17.3834 19.9074 17.0596 20.319C16.8225 20.6205 15.5905 21.0639 14.447 21.2593C13.4458 21.4306 12.3401 21.3804 11.2044 21.1121C8.32678 20.4325 6.12289 18.2683 5.39162 15.4042C4.98703 13.8195 5.05483 11.939 5.57506 10.3175C5.76759 9.71739 6.31042 8.65151 6.70225 8.10434C7.98116 6.3182 10.0252 5.12383 12.3444 4.80749C12.9847 4.7202 14.0796 4.71903 14.7254 4.80504ZM12.6327 9.65716C12.2094 9.74812 11.5585 10.0701 11.2267 10.3526C10.6886 10.8109 10.3134 11.411 10.1261 12.1132C9.97845 12.6668 9.97743 13.6274 10.1241 14.1764C10.5453 15.7539 11.7606 16.6739 13.4235 16.6739C15.0864 16.6739 16.302 15.7537 16.7228 14.1764C16.8704 13.6229 16.87 12.6634 16.7218 12.1132C16.3839 10.8581 15.4105 9.91356 14.1887 9.65511C13.7477 9.56191 13.0725 9.56275 12.6327 9.65716Z" fill="#262626"/>
</svg>
