<svg width="27" height="27" viewBox="0 0 27 27" fill="none" xmlns="http://www.w3.org/2000/svg">
<path fill-rule="evenodd" clip-rule="evenodd" d="M12.2178 0.0327815C8.82979 0.385053 5.82445 1.89739 3.50904 4.41506C0.246206 7.96297 -0.847054 13.1034 0.677214 17.7302C1.36819 19.8277 2.46372 21.5833 4.06414 23.1578C6.18427 25.2436 8.76241 26.4943 11.8476 26.9338C12.4749 27.0231 14.5494 27.0217 15.2008 26.9315C18.2979 26.5025 20.964 25.1793 23.1076 23.0073C25.2405 20.8461 26.4901 18.2856 26.9337 15.1676C27.0221 14.546 27.0221 12.4604 26.9337 11.8388C26.6806 10.0601 26.1615 8.45432 25.379 7.03054C24.7614 5.90663 24.0401 4.94402 23.1076 3.99911C21.003 1.86663 18.3908 0.548797 15.3857 0.103585C14.7379 0.00757777 12.863 -0.0342699 12.2178 0.0327815ZM19.8196 8.1888C20.0527 8.28629 20.1647 8.51022 20.1647 8.87913C20.1647 9.21724 17.9326 19.827 17.8127 20.0592C17.6434 20.3866 17.282 20.5109 16.9102 20.3696C16.7865 20.3225 15.5652 19.4425 13.7813 18.1151L13.3388 17.7859L12.3786 18.7027C11.6792 19.3708 11.3719 19.63 11.2465 19.6574C11.1518 19.6783 11.0624 19.6834 11.0479 19.6688C11.0334 19.6543 11.0723 18.8851 11.1346 17.9597L11.2478 16.2772L11.6186 15.9338C11.8224 15.7449 13.2526 14.4479 14.7964 13.0517C16.3403 11.6554 17.6035 10.4785 17.6035 10.4362C17.6035 10.3825 17.5473 10.3609 17.4166 10.3643C17.2654 10.3685 16.4818 10.8408 13.3178 12.8345C11.1662 14.1903 9.37861 15.2996 9.34524 15.2996C9.19949 15.2996 5.87019 14.2289 5.71219 14.1312C5.37506 13.9226 5.44678 13.6065 5.88713 13.3601C6.00183 13.296 6.8433 12.955 7.75707 12.6024C8.67084 12.2499 10.3928 11.5855 11.5836 11.126C12.7744 10.6666 14.9011 9.84526 16.3097 9.30083C19.3978 8.10733 19.3688 8.118 19.5195 8.11562C19.5857 8.11456 19.7208 8.14754 19.8196 8.1888Z" fill="#262626"/>
</svg>
