<svg width="27" height="27" viewBox="0 0 27 27" fill="none" xmlns="http://www.w3.org/2000/svg">
<path fill-rule="evenodd" clip-rule="evenodd" d="M12.2394 0.0313491C7.65117 0.473899 3.55305 3.25191 1.47634 7.32737C0.741909 8.76874 0.30796 10.1586 0.0705107 11.8298C-0.0347404 12.5709 -0.0194706 14.4881 0.0983562 15.3144C0.30759 16.7818 0.740535 18.1722 1.40406 19.5079C2.72049 22.1578 4.8235 24.2591 7.48083 25.5795C11.7886 27.7199 16.8795 27.4256 20.8975 24.8038C22.4685 23.7787 23.9574 22.259 24.9738 20.643C25.3601 20.0289 25.9433 18.8349 26.2083 18.1161C26.4752 17.3918 26.7865 16.1345 26.9019 15.3144C27.0189 14.4837 27.0347 12.5617 26.9306 11.8298C26.6186 9.63721 25.9229 7.7706 24.7677 6.02733C24.2764 5.28593 23.7857 4.68779 23.1022 3.99694C20.9949 1.86707 18.3735 0.546127 15.376 0.103629C14.7297 0.00822365 12.9132 -0.033645 12.2394 0.0313491ZM14.5582 5.12126C15.606 5.26065 16.4025 5.5116 17.3635 6.00493C21.3887 8.07154 23.0299 13.0561 21.0198 17.1095C20.1972 18.7682 18.9412 20.041 17.3011 20.8779C15.0924 22.005 12.491 22.0916 10.1884 21.1145L9.75606 20.931L7.62581 21.4358C6.45416 21.7135 5.46172 21.9407 5.42045 21.9406C5.29561 21.9405 5.15215 21.7743 5.1512 21.6287C5.15072 21.5534 5.34527 20.5433 5.58351 19.3843C6.0109 17.3054 6.01561 17.2738 5.93234 17.0611C5.88595 16.9426 5.76031 16.6205 5.65315 16.3456C4.98709 14.6361 4.94921 12.6098 5.54901 10.7738C5.74735 10.1668 6.26458 9.14229 6.64622 8.60052C7.05634 8.01838 8.05104 7.01834 8.62348 6.6127C10.3392 5.39691 12.5169 4.84967 14.5582 5.12126ZM13.1041 6.87557C12.1182 6.95709 11.3366 7.17683 10.4886 7.61099C7.6358 9.07143 6.27325 12.3895 7.26541 15.4601C7.35212 15.7284 7.53895 16.1776 7.6806 16.4582L7.93808 16.9683L7.67928 18.2245C7.53694 18.9153 7.42726 19.5081 7.4355 19.5415C7.44569 19.5828 7.85909 19.5057 8.71859 19.3021L9.98662 19.0018L10.4886 19.2503C12.7151 20.3529 15.1906 20.1974 17.2223 18.8275C19.6011 17.2235 20.6433 14.1091 19.7231 11.3546C19.067 9.3908 17.4822 7.81701 15.5345 7.19521C14.9702 7.01501 14.6795 6.95466 14.0816 6.89352C13.585 6.84273 13.5165 6.84146 13.1041 6.87557ZM10.9892 9.44983C11.1938 9.53531 11.2406 9.61545 11.707 10.6798C11.8804 11.0754 12.0209 11.4733 12.0209 11.5687C12.0209 11.6965 11.9452 11.8413 11.7302 12.1248C11.3773 12.5904 11.3566 12.7589 11.6035 13.1526C11.8068 13.4766 12.7602 14.4208 13.2897 14.8225C14.1156 15.4491 14.4781 15.5986 14.7851 15.4393C14.8486 15.4064 15.0471 15.2401 15.2262 15.0698C15.4914 14.8173 15.5845 14.7603 15.7281 14.7614C15.8251 14.7621 16.3086 14.8795 16.8026 15.0224C17.5706 15.2446 17.7219 15.3057 17.8461 15.4443C17.9517 15.562 17.9915 15.6624 17.9915 15.8108C17.9915 16.2429 17.214 17.1247 16.6328 17.352C16.2244 17.5117 15.2953 17.5246 14.742 17.3783C13.4048 17.0247 11.7923 15.8936 10.6135 14.4826C9.6821 13.3676 9.30248 12.5011 9.30075 11.4856C9.29985 10.9623 9.30989 10.9098 9.47558 10.5733C9.58971 10.3416 9.77921 10.0868 10.0157 9.84709C10.4924 9.36419 10.6398 9.30401 10.9892 9.44983Z" fill="#262626"/>
</svg>
